# xmcd
#
# Track frame offsets: 
#        150
#        15545
#        29284
#        56864
#        76740
#        86565
#        100258
#        118138
#        132519
#        149984
#        164322
#        183064
#        201485
#        212758
#        232478
#        250366
#        265889
#
# Disc length: 3782 seconds
#
# Revision: 0
# Processed by: cddbd v1.5.2PL0 Copyright (c) Steve Scherf et al.
# Submitted via: ExactAudioCopyFreeDBPlugin 1.0
#
DISCID=020ec411
DTITLE=Jan Erik Fjellström - Fjellis Records 2008 - Leve De Vilda Stre
DTITLE=jkerna
DYEAR=1900
DGENRE=
TTITLE0=Leve De Vilda Strejkerna
TTITLE1=National Defense Blues
TTITLE2=Texas Flood
TTITLE3=300 Pounds Of Joy
TTITLE4=I Belive I'm In Love
TTITLE5=Hell Hound On My Trail
TTITLE6=Sugar Coated Love
TTITLE7=Don't Start Crying Now
TTITLE8=You Got To Move
TTITLE9=Tee Ni Nee Ni Nu
TTITLE10=Come On In My Kitchen
TTITLE11=Steady Rollin' Man
TTITLE12=Different Style
TTITLE13=Rollin' And Tumblin
TTITLE14=When You Got A Good Friend
TTITLE15=Rich Woman
TTITLE16=Walkin' Blues
EXTD=
EXTT0=
EXTT1=
EXTT2=
EXTT3=
EXTT4=
EXTT5=
EXTT6=
EXTT7=
EXTT8=
EXTT9=
EXTT10=
EXTT11=
EXTT12=
EXTT13=
EXTT14=
EXTT15=
EXTT16=
PLAYORDER=
